<svg width="165" height="165" viewBox="0 0 165 165" fill="none" xmlns="http://www.w3.org/2000/svg">
<path d="M14.2605 108.318C21.761 124.318 46.094 123.652 58.2607 120.818V84.3187H107.261V120.818C132.861 126.818 147.761 117.152 152.261 110.818C163.761 13.3184 6.76099 12.3184 14.2605 108.318Z" fill="black"/>
<path d="M108.761 113.318C88.761 138.118 64.4277 123.652 54.761 113.318V76.3184H108.761V113.318Z" fill="#D6A988"/>
<path d="M78.261 87.8184C78.261 101.223 68.4933 111.818 56.761 111.818C45.0287 111.818 35.261 101.223 35.261 87.8184C35.261 74.4142 45.0287 63.8184 56.761 63.8184C68.4933 63.8184 78.261 74.4142 78.261 87.8184Z" fill="white" stroke="black" stroke-width="3"/>
<path d="M128.261 87.8184C128.261 101.223 118.493 111.818 106.761 111.818C95.0287 111.818 85.261 101.223 85.261 87.8184C85.261 74.4142 95.0287 63.8184 106.761 63.8184C118.493 63.8184 128.261 74.4142 128.261 87.8184Z" fill="white" stroke="black" stroke-width="3"/>
<ellipse cx="82.761" cy="96.8184" rx="8" ry="5.5" fill="#D6A988"/>
</svg>
