<!--The image of Mr incredible's head-->
<svg width="134" height="134" viewBox="0 0 134 134" fill="none" xmlns="http://www.w3.org/2000/svg">
<path d="M31.776 68.3467C42.276 20.3467 41.2759 15.8467 65.276 16.8467C93.776 15.3467 94.276 40.8467 100.776 68.3467C115.776 119.847 87.276 127.347 65.276 127.347C24.7759 127.347 26.4427 89.18 31.776 68.3467Z" fill="#D6A988"/>
<path d="M75.276 13.8467C68.076 1.44668 59.6093 8.68001 56.276 13.8467C44.7759 14.8467 37.2759 18.8467 34.7759 55.8467C40.2759 20.3467 51.7759 19.8467 54.776 18.8467C55.176 23.2467 57.276 25.0133 58.276 25.3467C57.076 22.9467 57.776 20.0133 58.276 18.8467C65.476 27.2467 73.2758 22.8467 75.276 18.8467C90.2759 20.3467 94.7759 38.8467 97.7759 55.8467C95.7759 15.3467 84.7758 15.8467 75.276 13.8467Z" fill="#E9CB83"/>
</svg>
